<svg width="24" height="24" viewBox="0 0 24 24" fill="none" xmlns="http://www.w3.org/2000/svg">
<g clip-path="url(#clip0_3166_6726)">
<path d="M15.7501 6C15.7501 8.07107 14.0712 9.75 12.0001 9.75C9.92902 9.75 8.25009 8.07107 8.25009 6C8.25009 3.92893 9.92902 2.25 12.0001 2.25C14.0712 2.25 15.7501 3.92893 15.7501 6Z" fill="white"/>
<path d="M4.50122 20.1182C4.57153 16.0369 7.90196 12.75 12.0001 12.75C16.0983 12.75 19.4288 16.0371 19.499 20.1185C17.2162 21.166 14.6765 21.75 12.0004 21.75C9.32408 21.75 6.78418 21.1659 4.50122 20.1182Z" fill="white"/>
<path d="M15.7501 6C15.7501 8.07107 14.0712 9.75 12.0001 9.75C9.92902 9.75 8.25009 8.07107 8.25009 6C8.25009 3.92893 9.92902 2.25 12.0001 2.25C14.0712 2.25 15.7501 3.92893 15.7501 6Z" stroke="white" stroke-width="1.5" stroke-linecap="round" stroke-linejoin="round"/>
<path d="M4.50122 20.1182C4.57153 16.0369 7.90196 12.75 12.0001 12.75C16.0983 12.75 19.4288 16.0371 19.499 20.1185C17.2162 21.166 14.6765 21.75 12.0004 21.75C9.32408 21.75 6.78418 21.1659 4.50122 20.1182Z" stroke="white" stroke-width="1.5" stroke-linecap="round" stroke-linejoin="round"/>
</g>
<defs>
<clipPath id="clip0_3166_6726">
<rect width="24" height="24" fill="white"/>
</clipPath>
</defs>
</svg>
